<svg width="78px" height="62px" viewBox="0 0 78 62" version="1.1"
     xmlns="http://www.w3.org/2000/svg">
    <g stroke="none" stroke-width="1" fill="none" fill-rule="evenodd">
        <path d="M24.58,62.06 C30.08,62.06 36.02,57.88 36.02,51.94 C36.02,46.88 34.04,44.68 33.16,44.24 C24.58,42.48 18.64,36.32 18.64,28.4 C18.64,20.04 25.02,13.44 36.24,7.94 L33.6,0.46 C17.76,4.86 0.82,15.86 0.82,35.22 C0.82,51.94 13.8,62.06 24.36,62.06 L24.58,62.06 Z M66.82,62.06 C72.32,62.06 78.26,57.88 78.26,51.94 C78.26,46.88 76.28,44.68 75.4,44.24 C66.6,42.48 61.1,36.32 61.1,28.4 C61.1,20.04 67.26,13.44 78.48,7.94 L75.84,0.46 C60,4.86 43.06,15.86 43.06,35.22 C43.06,51.94 56.26,62.06 66.6,62.06 L66.82,62.06 Z" fill="#E1E9F1" fill-rule="nonzero"></path>
    </g>
</svg>